<!DOCTYPE svg PUBLIC "-//W3C//DTD SVG 1.1//EN" "http://www.w3.org/Graphics/SVG/1.1/DTD/svg11.dtd">
<!-- Uploaded to: SVG Repo, www.svgrepo.com, Transformed by: SVG Repo Mixer Tools -->
<svg fill="#1351D8" height="800px" width="800px" version="1.1" id="Layer_1" xmlns="http://www.w3.org/2000/svg" xmlns:xlink="http://www.w3.org/1999/xlink" viewBox="0 0 491.402 491.402" xml:space="preserve">
<g id="SVGRepo_bgCarrier" stroke-width="0"/>
<g id="SVGRepo_tracerCarrier" stroke-linecap="round" stroke-linejoin="round"/>
<g id="SVGRepo_iconCarrier"> <g> <g> <path d="M490.86,113.163l-0.8-6.7l-6.48-1.91c-85.26-25.11-117.45-57.86-117.73-58.155l-7.42-7.785l-7.44,7.75 c-0.244,0.252-19.177,19.418-66.048,39.646c-27.738-14.573-58.841-22.341-90.382-22.341C87.28,63.668,0,150.948,0,258.228 s87.28,194.56,194.56,194.56c88.252,0,164.666-58.795,187.629-143.468C504.841,244.012,491.022,114.528,490.86,113.163z M137.213,94.055c-11.909,13.92-22.154,32.032-30.089,53.439c-9.673-5.644-18.826-12.245-27.375-19.779 C96.407,113.043,115.847,101.542,137.213,94.055z M65.207,142.141c10.984,9.818,22.827,18.354,35.475,25.346 c-6.778,24.136-10.82,51.385-11.609,80.502H20.999C23.377,207.407,39.647,170.592,65.207,142.141z M20.999,268.468h68.074 c0.785,28.963,4.795,56.071,11.509,80.112c-12.696,7.029-24.582,15.611-35.599,25.488C39.55,345.652,23.37,308.932,20.999,268.468 z M79.501,388.517c8.578-7.587,17.764-14.235,27.477-19.916c7.954,21.569,18.256,39.801,30.235,53.801 C115.739,414.877,96.215,403.293,79.501,388.517z M184.32,430.855c-23.844-6.141-44.951-33.284-58.668-71.8 c18.422-7.946,38.209-12.554,58.668-13.738V430.855z M184.32,324.837c-22.561,1.167-44.444,5.972-64.832,14.496 c-5.711-21.492-9.182-45.562-9.945-70.864h74.777V324.837z M184.32,247.988h-74.777c0.768-25.457,4.27-49.677,10.042-71.269 c20.36,8.5,42.211,13.285,64.735,14.451V247.988z M184.32,170.69c-20.406-1.181-40.145-5.763-58.526-13.671 c13.72-38.311,34.761-65.297,58.526-71.417V170.69z M258.513,96.325c-1.232,0.436-2.499,0.869-3.758,1.302 c-0.999-1.264-1.982-2.577-3.001-3.773C254.019,94.642,256.281,95.445,258.513,96.325z M204.8,85.606 c11.486,2.964,21.261,10.417,28.958,18.78c-0.186,0.055-0.351,0.112-0.538,0.167l-6.48,1.91l-0.8,6.7 c-0.068,0.568-2.486,23.376,3.519,54.481c-8.111,1.649-16.348,2.737-24.659,3.22V85.606z M204.8,191.343 c9.936-0.518,19.784-1.793,29.472-3.801c5.611,19.231,14.688,40.203,29.129,60.446H204.8V191.343z M204.8,268.468h74.806 c-0.747,25.444-4.243,49.452-9.886,70.897c-20.41-8.546-42.322-13.359-64.919-14.528V268.468z M204.8,430.877v-85.56 c20.553,1.188,40.424,5.836,58.913,13.845C250.027,397.858,228.818,424.807,204.8,430.877z M251.094,422.918 c12.195-14.1,22.687-32.609,30.811-54.464c9.886,5.761,19.224,12.529,27.934,20.262 C292.796,403.76,272.899,415.472,251.094,422.918z M324.392,374.304c-11.146-10.031-23.181-18.745-36.053-25.851 c5.399-19.12,9.173-40.081,10.878-62.411c15.134,12.298,33.29,23.508,55.173,32.811l2.824,1.198 C349.542,340.346,338.374,358.661,324.392,374.304z M358.4,298.258c-110.28-49.215-113.76-149.275-112.6-176.105 c64.29-19.84,98.69-43.595,112.6-54.995c13.9,11.395,48.29,35.14,112.53,54.97C471.8,148.708,467.54,249.498,358.4,298.258z"/> </g> </g> <g> <g> <path d="M432.22,141.408c-25.82-9.65-48.84-20.7-68.42-32.84l-5.4-3.345l-5.4,3.345c-19.55,12.125-42.57,23.17-68.4,32.825 l-7.77,2.905l1.23,8.21c4.92,32.65,21.96,78.015,75.22,108.725l5.12,2.95l5.11-2.95c53.3-30.72,70.34-76.075,75.26-108.71 l1.23-8.21L432.22,141.408z M358.4,240.413c-38.14-23.97-53.09-56.785-58.63-82.905c21.61-8.495,41.27-17.97,58.63-28.26 c17.38,10.3,37.05,19.785,58.66,28.275C411.52,183.633,396.57,216.433,358.4,240.413z"/> </g> </g> </g>
</svg>